<?xml version="1.0" standalone="no"?>
<!DOCTYPE svg PUBLIC "-//W3C//DTD SVG 20010904//EN"
 "http://www.w3.org/TR/2001/REC-SVG-20010904/DTD/svg10.dtd">
<svg version="1.0" xmlns="http://www.w3.org/2000/svg"
 width="304.000000pt" height="206.000000pt" viewBox="0 0 304.000000 206.000000"
 preserveAspectRatio="xMidYMid meet">

<g transform="translate(0.000000,206.000000) scale(0.100000,-0.100000)"
fill="#000000" stroke="none">
<path d="M850 315 c0 -101 18 -115 22 -17 l3 67 38 -67 c27 -48 44 -68 57 -68
18 0 20 7 20 86 0 64 -3 85 -12 81 -9 -2 -13 -24 -12 -65 1 -34 -2 -59 -7 -57
-4 3 -23 32 -41 65 -21 38 -39 60 -50 60 -16 0 -18 -10 -18 -85z"/>
<path d="M1100 315 l0 -85 45 0 c33 0 45 4 45 15 0 10 -10 15 -30 15 -25 0
-30 4 -30 25 0 21 5 25 30 25 17 0 30 5 30 10 0 6 -14 10 -31 10 -26 0 -30 3
-27 23 2 16 11 23 31 25 44 5 31 22 -18 22 l-45 0 0 -85z"/>
<path d="M1335 388 c-3 -7 -13 -38 -24 -68 -10 -30 -22 -63 -26 -72 -5 -13 -2
-18 8 -18 9 0 19 9 22 20 9 29 75 29 82 0 5 -19 33 -29 33 -12 0 4 -12 42 -27
85 -20 59 -31 77 -45 77 -10 0 -21 -6 -23 -12z m40 -60 c6 -25 4 -28 -18 -28
-24 0 -25 2 -16 32 5 18 9 35 9 37 0 14 20 -18 25 -41z"/>
<path d="M1530 315 c0 -69 3 -85 15 -85 10 0 15 11 15 35 0 45 18 45 48 0 12
-19 27 -35 32 -35 15 0 12 9 -11 41 -20 29 -20 31 -4 49 11 13 15 28 11 43 -6
25 -30 37 -78 37 l-28 0 0 -85z m78 31 c-2 -13 -12 -22 -25 -24 -18 -3 -23 1
-23 21 0 30 6 36 31 30 14 -4 19 -13 17 -27z"/>
<path d="M1750 315 c0 -69 3 -85 15 -85 12 0 15 16 15 85 0 69 -3 85 -15 85
-12 0 -15 -16 -15 -85z"/>
<path d="M1896 379 c-19 -28 -7 -53 34 -74 50 -26 30 -63 -26 -49 -26 7 -34
-10 -8 -20 45 -17 97 14 87 53 -3 12 -8 21 -12 21 -3 0 -19 11 -36 25 -25 20
-28 26 -15 34 8 6 26 7 39 4 17 -4 22 -2 19 8 -2 8 -18 15 -35 17 -23 2 -35
-3 -47 -19z"/>
</g>
</svg>
