<?xml version="1.0" encoding="UTF-8"?>
<!DOCTYPE svg PUBLIC "-//W3C//DTD SVG 1.1//EN" "http://www.w3.org/Graphics/SVG/1.1/DTD/svg11.dtd">
<svg xmlns="http://www.w3.org/2000/svg" version="1.1" width="500px" height="167px" style="shape-rendering:geometricPrecision; text-rendering:geometricPrecision; image-rendering:optimizeQuality; fill-rule:evenodd; clip-rule:evenodd" xmlns:xlink="http://www.w3.org/1999/xlink">
<g><path style="opacity:1" fill="#be9b7a" d="M 65.5,69.5 C 68.9122,68.9579 71.9122,67.6246 74.5,65.5C 76.8368,63.6036 79.5035,62.2703 82.5,61.5C 84.8185,61.0075 86.8185,60.0075 88.5,58.5C 91.4841,56.3412 94.8174,54.6745 98.5,53.5C 101.354,53.0761 104.021,52.0761 106.5,50.5C 107.332,42.1866 107.832,33.8532 108,25.5C 111.206,27.5192 114.706,28.5192 118.5,28.5C 126.389,32.4653 134.722,35.4653 143.5,37.5C 147.885,39.6805 152.552,41.3472 157.5,42.5C 161.233,44.411 165.233,45.7444 169.5,46.5C 170.492,46.3284 171.158,46.6618 171.5,47.5C 175.216,49.4053 179.216,50.7387 183.5,51.5C 187.895,53.687 192.562,55.3537 197.5,56.5C 197.833,56.5 198.167,56.5 198.5,56.5C 201.8,58.6418 205.467,59.9751 209.5,60.5C 211.698,60.8751 213.698,61.5418 215.5,62.5C 215.5,94.8333 215.5,127.167 215.5,159.5C 226.5,159.5 237.5,159.5 248.5,159.5C 248.5,160.833 248.5,162.167 248.5,163.5C 165.5,163.5 82.5,163.5 -0.5,163.5C -0.5,162.167 -0.5,160.833 -0.5,159.5C 0.833333,159.5 2.16667,159.5 3.5,159.5C 3.17304,120.427 3.50638,81.4274 4.5,42.5C 5.28696,40.8958 6.6203,40.2291 8.5,40.5C 11.9922,39.5903 14.9922,37.9236 17.5,35.5C 19.8368,33.6036 22.5035,32.2703 25.5,31.5C 28.9922,30.5903 31.9922,28.9236 34.5,26.5C 35.287,24.8958 36.6203,24.2291 38.5,24.5C 42.2515,24.0601 45.2515,22.3934 47.5,19.5C 49.153,19.3404 50.4863,18.6737 51.5,17.5C 51.8417,16.6618 52.5084,16.3284 53.5,16.5C 55.1703,16.2488 56.6703,15.5822 58,14.5C 58.3333,34.1667 58.6667,53.8333 59,73.5C 61.4381,72.4316 63.6048,71.0983 65.5,69.5 Z M 49.5,77.5 C 47.6203,77.2291 46.287,77.8958 45.5,79.5C 38.714,81.7281 32.3807,84.7281 26.5,88.5C 24.6203,88.2291 23.287,88.8958 22.5,90.5C 20.5105,112.809 19.8438,135.475 20.5,158.5C 16.5,158.5 12.5,158.5 8.5,158.5C 8.17327,120.761 8.50661,83.094 9.5,45.5C 10.1667,45.1667 10.8333,44.8333 11.5,44.5C 15.6553,43.2583 19.322,41.2583 22.5,38.5C 26.2515,38.0601 29.2515,36.3934 31.5,33.5C 34.089,33.539 36.089,32.539 37.5,30.5C 39.3797,30.7709 40.713,30.1042 41.5,28.5C 45.264,27.1192 48.9307,25.4526 52.5,23.5C 53.6663,40.4902 53.8329,57.4902 53,74.5C 51.4815,75.1634 50.3149,76.1634 49.5,77.5 Z M 117.5,33.5 C 121.885,35.6801 126.552,37.3468 131.5,38.5C 133.102,40.0739 135.102,40.7406 137.5,40.5C 139.102,42.0739 141.102,42.7406 143.5,42.5C 145.792,44.2671 148.458,45.2671 151.5,45.5C 153.102,47.0739 155.102,47.7406 157.5,47.5C 161.085,49.8061 165.085,51.1394 169.5,51.5C 169.842,52.3382 170.508,52.6716 171.5,52.5C 173.102,54.0739 175.102,54.7406 177.5,54.5C 183.791,57.5987 190.458,59.9321 197.5,61.5C 200.797,63.6013 204.463,64.9347 208.5,65.5C 208.833,65.5 209.167,65.5 209.5,65.5C 210.492,96.4265 210.825,127.427 210.5,158.5C 198.5,158.5 186.5,158.5 174.5,158.5C 174.5,135.833 174.5,113.167 174.5,90.5C 154.007,89.5028 133.34,89.1695 112.5,89.5C 112.333,70.4971 112.5,51.4971 113,32.5C 114.356,33.3802 115.856,33.7135 117.5,33.5 Z M 66.5,74.5 C 69.9122,73.9579 72.9122,72.6246 75.5,70.5C 77.3797,70.7709 78.713,70.1042 79.5,68.5C 81.7496,67.8698 83.7496,66.8698 85.5,65.5C 90.7528,64.207 95.4194,61.8737 99.5,58.5C 101.677,58.4139 103.677,57.7472 105.5,56.5C 106.499,67.4798 106.832,78.4798 106.5,89.5C 90.8333,89.5 75.1667,89.5 59.5,89.5C 59.1774,85.774 59.5108,82.1073 60.5,78.5C 62.9106,77.6389 64.9106,76.3056 66.5,74.5 Z M 42.5,86.5 C 45.4965,85.7297 48.1632,84.3964 50.5,82.5C 51.4959,82.5858 52.3292,82.2524 53,81.5C 53.4974,84.146 53.6641,86.8127 53.5,89.5C 48.4889,89.6659 43.4889,89.4993 38.5,89C 40.3197,88.7996 41.653,87.9663 42.5,86.5 Z M 27.5,95.5 C 36.1667,95.5 44.8333,95.5 53.5,95.5C 53.5,116.5 53.5,137.5 53.5,158.5C 44.8333,158.5 36.1667,158.5 27.5,158.5C 27.5,137.5 27.5,116.5 27.5,95.5 Z M 112.5,95.5 C 131.167,95.5 149.833,95.5 168.5,95.5C 168.5,116.5 168.5,137.5 168.5,158.5C 149.833,158.5 131.167,158.5 112.5,158.5C 112.5,137.5 112.5,116.5 112.5,95.5 Z M 59.5,95.5 C 75.1667,95.5 90.8333,95.5 106.5,95.5C 106.5,116.5 106.5,137.5 106.5,158.5C 90.8333,158.5 75.1667,158.5 59.5,158.5C 59.5,137.5 59.5,116.5 59.5,95.5 Z"/></g>
<g><path style="opacity:0.451" fill="#f7f3ee" d="M 51.5,17.5 C 50.4863,18.6737 49.153,19.3404 47.5,19.5C 48.287,17.8958 49.6203,17.2291 51.5,17.5 Z"/></g>
<g><path style="opacity:0.357" fill="#efe7df" d="M 47.5,19.5 C 45.2515,22.3934 42.2515,24.0601 38.5,24.5C 41.0078,22.0764 44.0078,20.4097 47.5,19.5 Z"/></g>
<g><path style="opacity:0.325" fill="#eee7de" d="M 34.5,26.5 C 31.9922,28.9236 28.9922,30.5903 25.5,31.5C 28.0078,29.0764 31.0078,27.4097 34.5,26.5 Z"/></g>
<g><path style="opacity:0.169" fill="#f8f3f0" d="M 41.5,28.5 C 40.713,30.1042 39.3797,30.7709 37.5,30.5C 38.5137,29.3263 39.847,28.6596 41.5,28.5 Z"/></g>
<g><path style="opacity:0.408" fill="#f1ebe5" d="M 118.5,28.5 C 127.136,30.9319 135.469,33.9319 143.5,37.5C 134.722,35.4653 126.389,32.4653 118.5,28.5 Z"/></g>
<g><path style="opacity:0.243" fill="#f4efeb" d="M 37.5,30.5 C 36.089,32.539 34.089,33.539 31.5,33.5C 33.1815,31.9925 35.1815,30.9925 37.5,30.5 Z"/></g>
<g><path style="opacity:0.412" fill="#efe8e1" d="M 17.5,35.5 C 14.9922,37.9236 11.9922,39.5903 8.5,40.5C 11.0516,38.0568 14.0516,36.3901 17.5,35.5 Z"/></g>
<g><path style="opacity:0.061" fill="#f5f1ec" d="M 31.5,33.5 C 29.2515,36.3934 26.2515,38.0601 22.5,38.5C 25.2201,36.4735 28.2201,34.8068 31.5,33.5 Z"/></g>
<g><path style="opacity:0.201" fill="#fcf9f6" d="M 65.5,69.5 C 63.6048,71.0983 61.4381,72.4316 59,73.5C 58.6667,53.8333 58.3333,34.1667 58,14.5C 56.6703,15.5822 55.1703,16.2488 53.5,16.5C 54.911,14.461 56.911,13.461 59.5,13.5C 59.3334,32.8362 59.5,52.1695 60,71.5C 61.7255,70.536 63.5588,69.8693 65.5,69.5 Z"/></g>
<g><path style="opacity:0.433" fill="#f2ebe3" d="M 49.5,77.5 C 50.3149,76.1634 51.4815,75.1634 53,74.5C 53.8329,57.4902 53.6663,40.4902 52.5,23.5C 48.9307,25.4526 45.264,27.1192 41.5,28.5C 45.1085,25.6887 49.1085,23.3554 53.5,21.5C 54.6663,39.4907 54.833,57.4907 54,75.5C 52.6703,76.5822 51.1703,77.2488 49.5,77.5 Z"/></g>
<g><path style="opacity:0.039" fill="#f8f4f0" d="M 131.5,38.5 C 133.786,38.595 135.786,39.2616 137.5,40.5C 135.102,40.7406 133.102,40.0739 131.5,38.5 Z"/></g>
<g><path style="opacity:0.231" fill="#f3eee8" d="M 143.5,37.5 C 148.638,38.0792 153.305,39.7459 157.5,42.5C 152.552,41.3472 147.885,39.6805 143.5,37.5 Z"/></g>
<g><path style="opacity:0.235" fill="#f5efea" d="M 22.5,38.5 C 19.322,41.2583 15.6553,43.2583 11.5,44.5C 14.678,41.7417 18.3447,39.7417 22.5,38.5 Z"/></g>
<g><path style="opacity:0.084" fill="#f4efeb" d="M 157.5,42.5 C 161.915,42.8606 165.915,44.1939 169.5,46.5C 165.233,45.7444 161.233,44.411 157.5,42.5 Z"/></g>
<g><path style="opacity:0.256" fill="#f6f1ed" d="M 118.5,28.5 C 114.706,28.5192 111.206,27.5192 108,25.5C 107.832,33.8532 107.332,42.1866 106.5,50.5C 104.021,52.0761 101.354,53.0761 98.5,53.5C 100.608,51.9409 102.941,50.6076 105.5,49.5C 106.498,41.1932 106.831,32.8599 106.5,24.5C 110.767,25.2556 114.767,26.589 118.5,28.5 Z"/></g>
<g><path style="opacity:0.224" fill="#f2ebe5" d="M 143.5,42.5 C 146.542,42.7329 149.208,43.7329 151.5,45.5C 148.458,45.2671 145.792,44.2671 143.5,42.5 Z"/></g>
<g><path style="opacity:0.022" fill="#eee9e3" d="M 151.5,45.5 C 153.898,45.2594 155.898,45.9261 157.5,47.5C 155.102,47.7406 153.102,47.0739 151.5,45.5 Z"/></g>
<g><path style="opacity:0.045" fill="#f2ece7" d="M 171.5,47.5 C 175.942,47.7315 179.942,49.0648 183.5,51.5C 179.216,50.7387 175.216,49.4053 171.5,47.5 Z"/></g>
<g><path style="opacity:0.196" fill="#f1eae3" d="M 157.5,47.5 C 161.767,48.2556 165.767,49.589 169.5,51.5C 165.085,51.1394 161.085,49.8061 157.5,47.5 Z"/></g>
<g><path style="opacity:0.037" fill="#f4efeb" d="M 183.5,51.5 C 188.638,52.0792 193.305,53.7459 197.5,56.5C 192.562,55.3537 187.895,53.687 183.5,51.5 Z"/></g>
<g><path style="opacity:0.022" fill="#f4f0ec" d="M 171.5,52.5 C 173.898,52.2594 175.898,52.9261 177.5,54.5C 175.102,54.7406 173.102,54.0739 171.5,52.5 Z"/></g>
<g><path style="opacity:0.459" fill="#f2ebe5" d="M 198.5,56.5 C 202.537,57.0653 206.203,58.3987 209.5,60.5C 205.467,59.9751 201.8,58.6418 198.5,56.5 Z"/></g>
<g><path style="opacity:0.055" fill="#f6f1ee" d="M 88.5,58.5 C 86.8185,60.0075 84.8185,61.0075 82.5,61.5C 83.911,59.461 85.911,58.461 88.5,58.5 Z"/></g>
<g><path style="opacity:0.049" fill="#f7f3ee" d="M 99.5,58.5 C 95.4194,61.8737 90.7528,64.207 85.5,65.5C 89.8177,62.6744 94.4843,60.3411 99.5,58.5 Z"/></g>
<g><path style="opacity:0.061" fill="#efeae2" d="M 197.5,61.5 C 201.533,62.0249 205.2,63.3582 208.5,65.5C 204.463,64.9347 200.797,63.6013 197.5,61.5 Z"/></g>
<g><path style="opacity:0.231" fill="#f1ebe5" d="M 74.5,65.5 C 71.9122,67.6246 68.9122,68.9579 65.5,69.5C 68.0878,67.3754 71.0878,66.0421 74.5,65.5 Z"/></g>
<g><path style="opacity:0.004" fill="#f8f7f6" d="M 286.5,69.5 C 293.313,68.5088 300.313,68.1755 307.5,68.5C 307.5,71.1667 307.5,73.8333 307.5,76.5C 303.167,76.5 298.833,76.5 294.5,76.5C 294.5,78.8333 294.5,81.1667 294.5,83.5C 294.167,83.5 293.833,83.5 293.5,83.5C 293.5,80.8333 293.5,78.1667 293.5,75.5C 297.833,75.5 302.167,75.5 306.5,75.5C 306.5,73.5 306.5,71.5 306.5,69.5C 299.833,69.5 293.167,69.5 286.5,69.5 Z"/></g>
<g><path style="opacity:0.029" fill="#f7f4f0" d="M 79.5,68.5 C 78.713,70.1042 77.3797,70.7709 75.5,70.5C 76.287,68.8958 77.6203,68.2291 79.5,68.5 Z"/></g>
<g><path style="opacity:1" fill="#62564a" d="M 232.5,105.5 C 232.5,93.5 232.5,81.5 232.5,69.5C 235.5,69.5 238.5,69.5 241.5,69.5C 242.338,69.8417 242.672,70.5084 242.5,71.5C 242.427,73.0269 243.094,74.0269 244.5,74.5C 246.417,77.331 248.083,80.331 249.5,83.5C 249.427,85.0269 250.094,86.0269 251.5,86.5C 252.674,87.5137 253.34,88.847 253.5,90.5C 253.427,92.0269 254.094,93.0269 255.5,93.5C 255.461,94.7562 255.961,95.7562 257,96.5C 257.5,87.5062 257.666,78.5062 257.5,69.5C 259.56,68.1888 261.726,68.1888 264,69.5C 264.5,81.4954 264.667,93.4954 264.5,105.5C 260.563,105.793 256.73,105.46 253,104.5C 248.08,96.3283 243.413,87.995 239,79.5C 239.298,88.1362 239.464,96.8029 239.5,105.5C 237.167,105.5 234.833,105.5 232.5,105.5 Z"/></g>
<g><path style="opacity:0.706" fill="#bbb9b0" d="M 457.5,69.5 C 457.027,70.9063 456.027,71.573 454.5,71.5C 454.973,70.0937 455.973,69.427 457.5,69.5 Z"/></g>
<g><path style="opacity:0.004" fill="#d8d4d0" d="M 396.5,71.5 C 398.5,71.5 399.5,72.5 399.5,74.5C 398.167,73.8333 397.167,72.8333 396.5,71.5 Z"/></g>
<g><path style="opacity:0.999" fill="#847c75" d="M 458.5,69.5 C 464.121,67.7674 469.454,68.6008 474.5,72C 473.695,73.1127 473.028,74.2794 472.5,75.5C 471.609,76.1098 470.609,76.4431 469.5,76.5C 466.833,76.1667 464.167,75.8333 461.5,75.5C 463.631,74.6862 465.964,74.1862 468.5,74C 469.552,72.2835 468.886,71.2835 466.5,71C 466.833,70.6667 467.167,70.3333 467.5,70C 464.518,69.502 461.518,69.3354 458.5,69.5 Z"/></g>
<g><path style="opacity:0.243" fill="#f3ede8" d="M 75.5,70.5 C 72.9122,72.6246 69.9122,73.9579 66.5,74.5C 68.8976,72.0257 71.8976,70.6924 75.5,70.5 Z"/></g>
<g><path style="opacity:0.171" fill="#e4e0da" d="M 257.5,69.5 C 257.666,78.5062 257.5,87.5062 257,96.5C 255.961,95.7562 255.461,94.7562 255.5,93.5C 256.167,85.5 256.833,77.5 257.5,69.5 Z"/></g>
<g><path style="opacity:0.208" fill="#cecac4" d="M 242.5,71.5 C 243.906,71.9731 244.573,72.9731 244.5,74.5C 243.094,74.0269 242.427,73.0269 242.5,71.5 Z"/></g>
<g><path style="opacity:0.973" fill="#61554b" d="M 396.5,71.5 C 397.167,72.8333 398.167,73.8333 399.5,74.5C 401.427,77.1368 401.927,80.1368 401,83.5C 399.357,85.9768 397.524,88.3102 395.5,90.5C 396.889,92.8676 398.222,95.2009 399.5,97.5C 399.427,99.0269 400.094,100.027 401.5,100.5C 401.427,102.027 402.094,103.027 403.5,103.5C 404.043,103.56 404.376,103.893 404.5,104.5C 401.5,105.833 398.5,105.833 395.5,104.5C 392.639,100.773 390.305,96.7729 388.5,92.5C 387.081,91.5489 385.415,91.2155 383.5,91.5C 383.5,96.1667 383.5,100.833 383.5,105.5C 380.833,105.5 378.167,105.5 375.5,105.5C 375.333,93.4954 375.5,81.4954 376,69.5C 379.744,68.374 383.577,68.2073 387.5,69C 390.851,69.0572 393.851,69.8906 396.5,71.5 Z M 390.5,76.5 C 393.148,79.0976 393.148,81.7643 390.5,84.5C 388.5,84.5 386.5,84.5 384.5,84.5C 384.5,81.8333 384.5,79.1667 384.5,76.5C 386.5,76.5 388.5,76.5 390.5,76.5 Z"/></g>
<g><path style="opacity:0.009" fill="#fbfbf9" d="M 390.5,76.5 C 388.5,76.5 386.5,76.5 384.5,76.5C 384.5,79.1667 384.5,81.8333 384.5,84.5C 386.5,84.5 388.5,84.5 390.5,84.5C 388.393,85.4682 386.059,85.8016 383.5,85.5C 383.5,82.1667 383.5,78.8333 383.5,75.5C 386.059,75.1984 388.393,75.5318 390.5,76.5 Z"/></g>
<g><path style="opacity:0.004" fill="#edebeb" d="M 472.5,75.5 C 471.947,77.5518 470.947,77.8852 469.5,76.5C 470.609,76.4431 471.609,76.1098 472.5,75.5 Z"/></g>
<g><path style="opacity:1" fill="#5d5248" d="M 423.5,69.5 C 425.5,69.5 427.5,69.5 429.5,69.5C 429.5,81.5 429.5,93.5 429.5,105.5C 427.167,105.5 424.833,105.5 422.5,105.5C 422.172,93.3217 422.505,81.3217 423.5,69.5 Z"/></g>
<g><path style="opacity:0.773" fill="#858079" d="M 423.5,69.5 C 425.607,68.5318 427.941,68.1984 430.5,68.5C 430.829,81.0113 430.495,93.3446 429.5,105.5C 429.5,93.5 429.5,81.5 429.5,69.5C 427.5,69.5 425.5,69.5 423.5,69.5 Z"/></g>
<g><path style="opacity:1" fill="#726760" d="M 335.5,70.5 C 335.232,73.1194 335.565,75.6194 336.5,78C 335.551,78.6172 334.718,78.4506 334,77.5C 334.244,80.3667 333.911,83.3667 333,86.5C 332.667,85.8333 332.333,85.1667 332,84.5C 331.623,85.9423 330.79,86.9423 329.5,87.5C 331.125,81.6193 333.125,75.9526 335.5,70.5 Z"/></g>
<g><path style="opacity:0.298" fill="#f1ece7" d="M 45.5,79.5 C 39.5993,83.2824 33.266,86.2824 26.5,88.5C 32.3807,84.7281 38.714,81.7281 45.5,79.5 Z"/></g>
<g><path style="opacity:0.361" fill="#c7c0b8" d="M 241.5,69.5 C 238.5,69.5 235.5,69.5 232.5,69.5C 232.5,81.5 232.5,93.5 232.5,105.5C 231.505,93.3446 231.171,81.0113 231.5,68.5C 235.042,68.1872 238.375,68.5206 241.5,69.5 Z"/></g>
<g><path style="opacity:0.169" fill="#d4cfca" d="M 249.5,83.5 C 250.906,83.9731 251.573,84.9731 251.5,86.5C 250.094,86.0269 249.427,85.0269 249.5,83.5 Z"/></g>
<g><path style="opacity:1" fill="#66594f" d="M 457.5,69.5 C 457.833,69.5 458.167,69.5 458.5,69.5C 461.518,69.3354 464.518,69.502 467.5,70C 467.167,70.3333 466.833,70.6667 466.5,71C 468.886,71.2835 469.552,72.2835 468.5,74C 465.964,74.1862 463.631,74.6862 461.5,75.5C 458.845,76.4665 458.178,78.1332 459.5,80.5C 464.086,83.376 468.586,86.376 473,89.5C 476.046,97.5725 473.546,103.073 465.5,106C 460.864,106.939 456.531,106.439 452.5,104.5C 451.244,102.059 451.244,99.7257 452.5,97.5C 455.521,98.0049 458.521,98.6716 461.5,99.5C 466.52,98.9111 467.52,96.7445 464.5,93C 458.564,91.2892 454.064,87.7892 451,82.5C 449.891,77.9951 451.058,74.3285 454.5,71.5C 456.027,71.573 457.027,70.9063 457.5,69.5 Z"/></g>
<g><path style="opacity:1" fill="#665d55" d="M 286.5,69.5 C 293.167,69.5 299.833,69.5 306.5,69.5C 306.5,71.5 306.5,73.5 306.5,75.5C 302.167,75.5 297.833,75.5 293.5,75.5C 296.962,74.5184 300.629,74.185 304.5,74.5C 304.5,73.1667 304.5,71.8333 304.5,70.5C 298.833,70.5 293.167,70.5 287.5,70.5C 287.5,81.8333 287.5,93.1667 287.5,104.5C 292.833,104.5 298.167,104.5 303.5,104.5C 303.5,103.5 303.5,102.5 303.5,101.5C 299.089,101.979 294.922,101.312 291,99.5C 291.772,95.3854 291.439,91.3854 290,87.5C 292.905,88.5767 295.738,88.2433 298.5,86.5C 296.456,85.9348 294.79,84.9348 293.5,83.5C 293.833,83.5 294.167,83.5 294.5,83.5C 298.167,83.5 301.833,83.5 305.5,83.5C 305.5,85.5 305.5,87.5 305.5,89.5C 301.5,89.5 297.5,89.5 293.5,89.5C 293.5,92.8333 293.5,96.1667 293.5,99.5C 297.833,99.5 302.167,99.5 306.5,99.5C 306.5,101.5 306.5,103.5 306.5,105.5C 299.5,105.5 292.5,105.5 285.5,105.5C 285.172,93.3217 285.505,81.3217 286.5,69.5 Z"/></g>
<g><path style="opacity:0.292" fill="#f6f1ec" d="M 42.5,86.5 C 41.653,87.9663 40.3197,88.7996 38.5,89C 43.4889,89.4993 48.4889,89.6659 53.5,89.5C 53.6641,86.8127 53.4974,84.146 53,81.5C 52.3292,82.2524 51.4959,82.5858 50.5,82.5C 51.287,80.8958 52.6203,80.2291 54.5,80.5C 54.5,83.8333 54.5,87.1667 54.5,90.5C 47.825,90.6663 41.1583,90.4996 34.5,90C 36.8175,88.0073 39.4842,86.8406 42.5,86.5 Z"/></g>
<g><path style="opacity:0.288" fill="#faf6f3" d="M 66.5,74.5 C 64.9106,76.3056 62.9106,77.6389 60.5,78.5C 59.5108,82.1073 59.1774,85.774 59.5,89.5C 75.1667,89.5 90.8333,89.5 106.5,89.5C 106.832,78.4798 106.499,67.4798 105.5,56.5C 103.677,57.7472 101.677,58.4139 99.5,58.5C 101.608,56.9409 103.941,55.6076 106.5,54.5C 107.499,66.4815 107.832,78.4815 107.5,90.5C 91.1667,90.5 74.8333,90.5 58.5,90.5C 58.1744,86.1161 58.5078,81.7828 59.5,77.5C 61.7388,76.2122 64.0721,75.2122 66.5,74.5 Z"/></g>
<g><path style="opacity:0.289" fill="#f9f5f2" d="M 117.5,33.5 C 115.856,33.7135 114.356,33.3802 113,32.5C 112.5,51.4971 112.333,70.4971 112.5,89.5C 133.34,89.1695 154.007,89.5028 174.5,90.5C 174.167,90.5 173.833,90.5 173.5,90.5C 152.833,90.5 132.167,90.5 111.5,90.5C 111.5,70.8333 111.5,51.1667 111.5,31.5C 113.898,31.2594 115.898,31.9261 117.5,33.5 Z"/></g>
<g><path style="opacity:0.831" fill="#b0aaa8" d="M 351.5,86.5 C 352.537,87.9303 353.204,89.597 353.5,91.5C 351.787,90.3646 351.12,88.698 351.5,86.5 Z"/></g>
<g><path style="opacity:1" fill="#524336" d="M 293.5,75.5 C 293.5,78.1667 293.5,80.8333 293.5,83.5C 294.79,84.9348 296.456,85.9348 298.5,86.5C 295.738,88.2433 292.905,88.5767 290,87.5C 291.439,91.3854 291.772,95.3854 291,99.5C 294.922,101.312 299.089,101.979 303.5,101.5C 303.5,102.5 303.5,103.5 303.5,104.5C 298.167,104.5 292.833,104.5 287.5,104.5C 287.5,93.1667 287.5,81.8333 287.5,70.5C 293.167,70.5 298.833,70.5 304.5,70.5C 304.5,71.8333 304.5,73.1667 304.5,74.5C 300.629,74.185 296.962,74.5184 293.5,75.5 Z"/></g>
<g><path style="opacity:0.008" fill="#fefdfd" d="M 388.5,92.5 C 387.167,92.5 385.833,92.5 384.5,92.5C 384.818,97.0323 384.485,101.366 383.5,105.5C 383.5,100.833 383.5,96.1667 383.5,91.5C 385.415,91.2155 387.081,91.5489 388.5,92.5 Z"/></g>
<g><path style="opacity:0.243" fill="#ccc4bc" d="M 253.5,90.5 C 254.906,90.9731 255.573,91.9731 255.5,93.5C 254.094,93.0269 253.427,92.0269 253.5,90.5 Z"/></g>
<g><path style="opacity:0.038" fill="#f3eee8" d="M 25.5,94.5 C 35.1667,94.5 44.8333,94.5 54.5,94.5C 54.5,116.167 54.5,137.833 54.5,159.5C 44.8333,159.5 35.1667,159.5 25.5,159.5C 25.5,137.833 25.5,116.167 25.5,94.5 Z M 27.5,95.5 C 27.5,116.5 27.5,137.5 27.5,158.5C 36.1667,158.5 44.8333,158.5 53.5,158.5C 53.5,137.5 53.5,116.5 53.5,95.5C 44.8333,95.5 36.1667,95.5 27.5,95.5 Z"/></g>
<g><path style="opacity:0.488" fill="#ede6de" d="M 4.5,42.5 C 3.50638,81.4274 3.17304,120.427 3.5,159.5C 2.16667,159.5 0.833333,159.5 -0.5,159.5C -0.5,159.167 -0.5,158.833 -0.5,158.5C 0.5,158.5 1.5,158.5 2.5,158.5C 1.83931,119.486 2.50597,80.8189 4.5,42.5 Z"/></g>
<g><path style="opacity:0.21" fill="#fcfaf8" d="M 9.5,45.5 C 8.50661,83.094 8.17327,120.761 8.5,158.5C 12.5,158.5 16.5,158.5 20.5,158.5C 19.8438,135.475 20.5105,112.809 22.5,90.5C 21.5109,113.425 21.1776,136.425 21.5,159.5C 16.8333,159.5 12.1667,159.5 7.5,159.5C 6.83941,121.152 7.50608,83.152 9.5,45.5 Z"/></g>
<g><path style="opacity:0.226" fill="#fbf8f5" d="M 58.5,94.5 C 74.8333,94.5 91.1667,94.5 107.5,94.5C 107.5,116.167 107.5,137.833 107.5,159.5C 91.1667,159.5 74.8333,159.5 58.5,159.5C 58.5,137.833 58.5,116.167 58.5,94.5 Z M 59.5,95.5 C 59.5,116.5 59.5,137.5 59.5,158.5C 75.1667,158.5 90.8333,158.5 106.5,158.5C 106.5,137.5 106.5,116.5 106.5,95.5C 90.8333,95.5 75.1667,95.5 59.5,95.5 Z"/></g>
<g><path style="opacity:0.033" fill="#f2efea" d="M 305.5,83.5 C 306.468,85.6074 306.802,87.9407 306.5,90.5C 302.5,90.5 298.5,90.5 294.5,90.5C 294.5,93.1667 294.5,95.8333 294.5,98.5C 298.833,98.5 303.167,98.5 307.5,98.5C 307.802,101.059 307.468,103.393 306.5,105.5C 306.5,103.5 306.5,101.5 306.5,99.5C 302.167,99.5 297.833,99.5 293.5,99.5C 293.5,96.1667 293.5,92.8333 293.5,89.5C 297.5,89.5 301.5,89.5 305.5,89.5C 305.5,87.5 305.5,85.5 305.5,83.5 Z"/></g>
<g><path style="opacity:0.686" fill="#94918e" d="M 452.5,97.5 C 451.244,99.7257 451.244,102.059 452.5,104.5C 451.252,103.666 450.585,102.333 450.5,100.5C 450.833,99.1667 451.167,97.8333 451.5,96.5C 452.107,96.6236 452.44,96.9569 452.5,97.5 Z"/></g>
<g><path style="opacity:1" fill="#5d5145" d="M 351.5,86.5 C 351.12,88.698 351.787,90.3646 353.5,91.5C 355.355,95.7263 357.021,100.06 358.5,104.5C 351.069,107.649 347.402,105.315 347.5,97.5C 343.03,96.5139 338.363,96.1805 333.5,96.5C 331.948,98.0354 330.615,99.8687 329.5,102C 328.833,102.667 328.167,102.667 327.5,102C 327.398,98.3445 327.731,94.5112 328.5,90.5C 328.263,89.209 328.596,88.209 329.5,87.5C 330.79,86.9423 331.623,85.9423 332,84.5C 332.333,85.1667 332.667,85.8333 333,86.5C 333.911,83.3667 334.244,80.3667 334,77.5C 334.718,78.4506 335.551,78.6172 336.5,78C 335.565,75.6194 335.232,73.1194 335.5,70.5C 335.611,69.8826 335.944,69.3826 336.5,69C 339.554,68.1786 342.554,68.3452 345.5,69.5C 347.902,75.039 349.902,80.7057 351.5,86.5 Z M 341.5,77.5 C 342.344,81.8741 343.344,86.2075 344.5,90.5C 341.833,90.5 339.167,90.5 336.5,90.5C 337.371,87.8877 338.037,85.221 338.5,82.5C 339.404,81.791 339.737,80.791 339.5,79.5C 340.167,78.8333 340.833,78.1667 341.5,77.5 Z"/></g>
<g><path style="opacity:0.064" fill="#efeeea" d="M 333.5,96.5 C 338.363,96.1805 343.03,96.5139 347.5,97.5C 342.737,97.2256 338.07,97.559 333.5,98.5C 333.5,97.8333 333.5,97.1667 333.5,96.5 Z"/></g>
<g><path style="opacity:1" fill="#827971" d="M 338.5,82.5 C 338.037,85.221 337.371,87.8877 336.5,90.5C 335.203,88.3066 335.203,85.9732 336.5,83.5C 337.183,83.1373 337.85,82.8039 338.5,82.5 Z"/></g>
<g><path style="opacity:0.016" fill="#f8f6f4" d="M 341.5,77.5 C 340.833,78.1667 340.167,78.8333 339.5,79.5C 339.312,77.8967 339.812,76.5634 341,75.5C 341.464,76.0944 341.631,76.7611 341.5,77.5 Z"/></g>
<g><path style="opacity:0.243" fill="#d0cdca" d="M 399.5,97.5 C 400.906,97.9731 401.573,98.9731 401.5,100.5C 400.094,100.027 399.427,99.0269 399.5,97.5 Z"/></g>
<g><path style="opacity:0.513" fill="#ebe4dd" d="M 209.5,65.5 C 211.493,96.4822 212.159,127.816 211.5,159.5C 198.833,159.5 186.167,159.5 173.5,159.5C 173.5,136.5 173.5,113.5 173.5,90.5C 173.833,90.5 174.167,90.5 174.5,90.5C 174.5,113.167 174.5,135.833 174.5,158.5C 186.5,158.5 198.5,158.5 210.5,158.5C 210.825,127.427 210.492,96.4265 209.5,65.5 Z"/></g>
<g><path style="opacity:0.282" fill="#cac7c4" d="M 401.5,100.5 C 402.906,100.973 403.573,101.973 403.5,103.5C 402.094,103.027 401.427,102.027 401.5,100.5 Z"/></g>
<g><path style="opacity:1" fill="#665e55" d="M 328.5,90.5 C 327.731,94.5112 327.398,98.3445 327.5,102C 328.167,102.667 328.833,102.667 329.5,102C 330.615,99.8687 331.948,98.0354 333.5,96.5C 333.5,97.1667 333.5,97.8333 333.5,98.5C 333.326,100.861 332.993,103.194 332.5,105.5C 329.833,105.5 327.167,105.5 324.5,105.5C 324.5,104.5 324.5,103.5 324.5,102.5C 325.261,98.2157 326.595,94.2157 328.5,90.5 Z"/></g>
<g><path style="opacity:0.69" fill="#afacaa" d="M 324.5,102.5 C 324.5,103.5 324.5,104.5 324.5,105.5C 322.443,105.043 322.443,104.043 324.5,102.5 Z"/></g>
<g><path style="opacity:0.02" fill="#e2e0dd" d="M 274.5,123.5 C 278.311,124.612 278.478,126.279 275,128.5C 274.235,128.43 273.735,128.097 273.5,127.5C 275.842,126.789 276.175,125.456 274.5,123.5 Z"/></g>
<g><path style="opacity:0.998" fill="#b4ab9d" d="M 283.5,123.5 C 285.5,123.5 287.5,123.5 289.5,123.5C 289.5,130.833 289.5,138.167 289.5,145.5C 287.5,145.5 285.5,145.5 283.5,145.5C 283.5,138.167 283.5,130.833 283.5,123.5 Z"/></g>
<g><path style="opacity:1" fill="#b2a89a" d="M 327.5,131.5 C 327.631,130.624 327.298,129.957 326.5,129.5C 325.505,134.792 325.172,140.125 325.5,145.5C 324.167,145.5 322.833,145.5 321.5,145.5C 321.5,138.167 321.5,130.833 321.5,123.5C 323.597,123.003 325.43,122.67 327,122.5C 330.499,126.827 333.499,131.494 336,136.5C 336.499,132.179 336.666,127.846 336.5,123.5C 338.5,123.5 340.5,123.5 342.5,123.5C 342.373,130.9 342.039,138.067 341.5,145C 339.098,145.814 336.765,145.647 334.5,144.5C 331.887,140.272 329.554,135.939 327.5,131.5 Z"/></g>
<g><path style="opacity:0.948" fill="#b0a798" d="M 381.5,122.5 C 386.058,122.236 390.724,122.569 395.5,123.5C 395.5,124.833 395.5,126.167 395.5,127.5C 393.5,127.5 391.5,127.5 389.5,127.5C 389.5,133.5 389.5,139.5 389.5,145.5C 387.533,145.739 385.699,145.406 384,144.5C 383.501,138.843 383.334,133.176 383.5,127.5C 380.712,127.923 378.712,126.923 377.5,124.5C 378.949,123.828 380.282,123.161 381.5,122.5 Z"/></g>
<g><path style="opacity:0.983" fill="#a49b8a" d="M 248.5,131.5 C 250.607,132.468 252.941,132.802 255.5,132.5C 255.5,133.5 255.5,134.5 255.5,135.5C 253.167,135.5 250.833,135.5 248.5,135.5C 248.5,137.833 248.5,140.167 248.5,142.5C 251.167,142.5 253.833,142.5 256.5,142.5C 256.5,143.5 256.5,144.5 256.5,145.5C 252.167,145.5 247.833,145.5 243.5,145.5C 243.5,138.167 243.5,130.833 243.5,123.5C 247.831,123.332 252.165,123.332 256.5,123.5C 257.731,124.651 257.731,125.817 256.5,127C 254.19,127.497 251.857,127.663 249.5,127.5C 249.567,128.959 249.234,130.292 248.5,131.5 Z"/></g>
<g><path style="opacity:0.813" fill="#aea495" d="M 429.5,122.5 C 441.906,121.734 447.072,127.401 445,139.5C 443.833,142 442,143.833 439.5,145C 435.179,145.499 430.846,145.666 426.5,145.5C 426.5,138.167 426.5,130.833 426.5,123.5C 427.791,123.737 428.791,123.404 429.5,122.5 Z M 432.5,127.5 C 440.46,128.589 442.46,132.756 438.5,140C 436.655,141.128 434.655,141.628 432.5,141.5C 432.5,136.833 432.5,132.167 432.5,127.5 Z"/></g>
<g><path style="opacity:0.312" fill="#e1dad1" d="M 327.5,131.5 C 326.833,136.167 326.167,140.833 325.5,145.5C 325.172,140.125 325.505,134.792 326.5,129.5C 327.298,129.957 327.631,130.624 327.5,131.5 Z"/></g>
<g><path style="opacity:1" fill="#aba494" d="M 364.5,122.5 C 368.059,122.408 371.392,123.241 374.5,125C 373.335,128.501 371.168,129.334 368,127.5C 366.338,127.388 365.171,128.054 364.5,129.5C 366.457,131.485 368.79,132.985 371.5,134C 376.18,141.145 374.18,145.312 365.5,146.5C 363.547,145.844 361.547,145.511 359.5,145.5C 359.5,143.833 359.5,142.167 359.5,140.5C 362.482,140.963 365.482,141.296 368.5,141.5C 368.649,140.448 368.483,139.448 368,138.5C 365.154,136.743 362.488,134.743 360,132.5C 358.558,127.723 360.058,124.39 364.5,122.5 Z"/></g>
<g><path style="opacity:0.086" fill="#ede9e1" d="M 248.5,131.5 C 251.167,131.5 253.833,131.5 256.5,131.5C 256.5,133.167 256.5,134.833 256.5,136.5C 254.167,136.5 251.833,136.5 249.5,136.5C 249.5,138.167 249.5,139.833 249.5,141.5C 252.167,141.5 254.833,141.5 257.5,141.5C 257.768,143.099 257.434,144.432 256.5,145.5C 256.5,144.5 256.5,143.5 256.5,142.5C 253.833,142.5 251.167,142.5 248.5,142.5C 248.5,140.167 248.5,137.833 248.5,135.5C 250.833,135.5 253.167,135.5 255.5,135.5C 255.5,134.5 255.5,133.5 255.5,132.5C 252.941,132.802 250.607,132.468 248.5,131.5 Z"/></g>
<g><path style="opacity:0.661" fill="#bfb7aa" d="M 452.5,123.5 C 454.167,123.5 455.833,123.5 457.5,123.5C 457.5,130.833 457.5,138.167 457.5,145.5C 455.833,145.5 454.167,145.5 452.5,145.5C 452.5,138.167 452.5,130.833 452.5,123.5 Z"/></g>
<g><path style="opacity:0.991" fill="#988c78" d="M 453.5,124.5 C 454.5,124.5 455.5,124.5 456.5,124.5C 456.5,131.167 456.5,137.833 456.5,144.5C 455.5,144.5 454.5,144.5 453.5,144.5C 453.5,137.833 453.5,131.167 453.5,124.5 Z"/></g>
<g><path style="opacity:1" fill="#969173" d="M 485.5,137.5 C 485.5,137.833 485.5,138.167 485.5,138.5C 484.292,139.234 482.959,139.567 481.5,139.5C 481.187,136.753 481.52,134.086 482.5,131.5C 484.923,132.712 485.923,134.712 485.5,137.5 Z"/></g>
<g><path style="opacity:0.99" fill="#aca596" d="M 274.5,123.5 C 276.175,125.456 275.842,126.789 273.5,127.5C 271.833,127.5 270.167,127.5 268.5,127.5C 268.351,128.552 268.517,129.552 269,130.5C 271.758,131.795 274.258,133.461 276.5,135.5C 278.593,142.427 275.927,146.094 268.5,146.5C 264.175,146.65 262.175,144.65 262.5,140.5C 265.738,141.395 268.905,141.395 272,140.5C 272.617,139.551 272.451,138.718 271.5,138C 266.714,136.959 263.714,134.126 262.5,129.5C 264.358,123.238 268.358,121.238 274.5,123.5 Z"/></g>
<g><path style="opacity:1" fill="#aca18e" d="M 470.5,130.5 C 470.5,133.167 470.5,135.833 470.5,138.5C 470.598,140.553 469.931,142.22 468.5,143.5C 466.827,142.657 465.66,141.324 465,139.5C 464.088,135.194 464.588,131.194 466.5,127.5C 469.537,125.814 470.87,126.814 470.5,130.5 Z"/></g>
<g><path style="opacity:0.982" fill="#b1a99a" d="M 400.5,123.5 C 402.167,123.5 403.833,123.5 405.5,123.5C 405.211,129.245 405.711,134.912 407,140.5C 409,141.833 411,141.833 413,140.5C 413.499,134.843 413.666,129.176 413.5,123.5C 415.5,123.5 417.5,123.5 419.5,123.5C 419.666,129.176 419.499,134.843 419,140.5C 413.488,148.062 407.488,148.395 401,141.5C 400.501,135.509 400.334,129.509 400.5,123.5 Z"/></g>
<g><path style="opacity:1" fill="#b1aa9b" d="M 485.5,137.5 C 485.923,134.712 484.923,132.712 482.5,131.5C 481.52,134.086 481.187,136.753 481.5,139.5C 482.959,139.567 484.292,139.234 485.5,138.5C 483.922,143.809 480.255,146.476 474.5,146.5C 472.013,146.241 470.013,145.241 468.5,143.5C 469.931,142.22 470.598,140.553 470.5,138.5C 473.491,142.489 476.658,142.489 480,138.5C 481.098,134.495 480.265,130.995 477.5,128C 474.341,126.916 472.008,127.75 470.5,130.5C 470.87,126.814 469.537,125.814 466.5,127.5C 470.992,122.03 476.325,121.196 482.5,125C 485.935,128.762 486.935,132.928 485.5,137.5 Z"/></g>
<g><path style="opacity:0.275" fill="#e9e2db" d="M 311.5,145.5 C 313.318,141.827 313.984,137.827 313.5,133.5C 311.167,133.5 308.833,133.5 306.5,133.5C 306.5,134.5 306.5,135.5 306.5,136.5C 307.791,136.263 308.791,136.596 309.5,137.5C 305.862,138.263 304.362,136.93 305,133.5C 308.057,132.549 311.223,132.216 314.5,132.5C 314.5,136.833 314.5,141.167 314.5,145.5C 313.5,145.5 312.5,145.5 311.5,145.5 Z"/></g>
<g><path style="opacity:0.994" fill="#a89f8f" d="M 218.5,123.5 C 224.105,122.908 229.439,123.741 234.5,126C 238.781,132.582 238.115,138.582 232.5,144C 227.964,145.379 223.297,145.879 218.5,145.5C 218.5,138.167 218.5,130.833 218.5,123.5 Z M 223.5,127.5 C 231.692,128.471 233.692,132.638 229.5,140C 227.655,141.128 225.655,141.628 223.5,141.5C 223.5,136.833 223.5,132.167 223.5,127.5 Z"/></g>
<g><path style="opacity:1" fill="#aaa292" d="M 309.5,137.5 C 308.791,136.596 307.791,136.263 306.5,136.5C 306.5,135.5 306.5,134.5 306.5,133.5C 308.833,133.5 311.167,133.5 313.5,133.5C 313.984,137.827 313.318,141.827 311.5,145.5C 301.848,148.187 296.514,144.52 295.5,134.5C 295.833,126.833 299.833,122.833 307.5,122.5C 309.818,122.997 312.152,123.33 314.5,123.5C 314.716,125.681 313.883,127.347 312,128.5C 302.913,126.589 299.747,130.256 302.5,139.5C 304.51,141.171 306.843,141.838 309.5,141.5C 309.5,140.167 309.5,138.833 309.5,137.5 Z"/></g>
<g><path style="opacity:0.16" fill="#fdfbf8" d="M 215.5,62.5 C 216.498,94.329 216.832,126.329 216.5,158.5C 227.5,158.5 238.5,158.5 249.5,158.5C 249.5,160.5 249.5,162.5 249.5,164.5C 166.167,164.5 82.8333,164.5 -0.5,164.5C -0.5,164.167 -0.5,163.833 -0.5,163.5C 82.5,163.5 165.5,163.5 248.5,163.5C 248.5,162.167 248.5,160.833 248.5,159.5C 237.5,159.5 226.5,159.5 215.5,159.5C 215.5,127.167 215.5,94.8333 215.5,62.5 Z"/></g>
</svg>
